<svg xmlns="http://www.w3.org/2000/svg" xmlns:xlink="http://www.w3.org/1999/xlink" width="20" height="20" viewBox="0 0 20 20">
    <defs>
        <path id="i8bj887uea" d="M0 0L20 0 20 20 0 20z"/>
    </defs>
    <g fill="none" fill-rule="evenodd">
        <g>
            <g>
                <g transform="translate(-34 -20) translate(20 8) translate(14 12)">
                    <mask id="ikt59s8y4b" fill="#fff">
                        <use xlink:href="#i8bj887uea"/>
                    </mask>
                    <path fill="#1B1D1F" d="M11.91 11.91c-.957.957-2.229 1.484-3.581 1.484-1.355-.001-2.627-.528-3.583-1.485-.955-.955-1.48-2.227-1.48-3.582 0-1.354.525-2.626 1.48-3.582.957-.957 2.23-1.483 3.583-1.483 1.353 0 2.624.526 3.581 1.483.957.957 1.485 2.23 1.485 3.583 0 1.352-.528 2.624-1.485 3.582M8.328 2.083c-1.668 0-3.236.65-4.416 1.829-1.18 1.179-1.829 2.747-1.829 4.415 0 1.668.65 3.236 1.83 4.415 1.179 1.18 2.747 1.83 4.415 1.83 1.446 0 2.802-.48 3.92-1.387l.058-.046.053.052 4.558 4.558c.222.223.61.223.833 0 .112-.11.173-.258.173-.415 0-.157-.06-.306-.172-.417l-4.611-4.611.046-.058c.908-1.119 1.386-2.475 1.386-3.92 0-1.67-.65-3.237-1.829-4.416-1.178-1.18-2.746-1.829-4.415-1.829" mask="url(#ikt59s8y4b)"/>
                </g>
            </g>
        </g>
    </g>
</svg>
