<svg xmlns="http://www.w3.org/2000/svg" xmlns:xlink="http://www.w3.org/1999/xlink" width="32" height="32" viewBox="0 0 32 32">
    <defs>
        <path id="9yj7xks3ca" d="M0 0L32 0 32 32 0 32z"/>
    </defs>
    <g fill="none" fill-rule="evenodd">
        <g>
            <g>
                <g>
                    <g transform="translate(-209 -1275) translate(140 1031) translate(0 220) translate(69 24)">
                        <mask id="t5rv89qzab" fill="#fff">
                            <use xlink:href="#9yj7xks3ca"/>
                        </mask>
                        <path fill="#1B1D1F" d="M4.853 7.2H7.2V4.855H4.853V7.2zM7.96 23.28H6.817V8.721H7.96c.419 0 .76-.34.76-.76V6.82h14.558v1.142c0 .42.342.76.76.76h1.142V23.28h-1.142c-.418 0-.76.342-.76.761v1.141H8.719V24.04c0-.419-.34-.76-.759-.76zm16.84 3.865h2.345v-2.343h-2.344v2.343zm0-19.946h2.345V4.856h-2.344V7.2zM4.854 27.145H7.2v-2.343H4.853v2.343zM27.898 8.722c.416 0 .761-.34.769-.76v-3.86c0-.424-.345-.769-.769-.769h-3.86c-.418 0-.76.345-.76.769v1.195H8.719V4.102c0-.416-.339-.761-.759-.769H4.1c-.417 0-.76.344-.767.769v3.86c0 .42.342.76.767.76h1.197V23.28H4.1c-.417 0-.76.34-.767.761v3.86c0 .417.342.76.767.768h3.86c.419 0 .76-.343.76-.768v-1.196h14.558V27.9c0 .417.34.76.76.768h3.86c.416 0 .761-.343.769-.768v-3.86c0-.419-.345-.76-.769-.76h-1.195V8.721h1.195z" mask="url(#t5rv89qzab)"/>
                    </g>
                </g>
            </g>
        </g>
    </g>
</svg>
