<svg xmlns="http://www.w3.org/2000/svg" xmlns:xlink="http://www.w3.org/1999/xlink" width="18" height="18" viewBox="0 0 18 18">
    <defs>
        <path id="t5p4s3nj3a" d="M0 0L18 0 18 18 0 18z"/>
    </defs>
    <g fill="none" fill-rule="evenodd">
        <g>
            <g>
                <g>
                    <g>
                        <g transform="translate(-97 -119) translate(0 68) translate(20 44) translate(70) matrix(-1 0 0 1 25 7)">
                            <mask id="ntgw44s4pb" fill="#fff">
                                <use xlink:href="#t5p4s3nj3a"/>
                            </mask>
                            <path fill="#C9CDD2" d="M9.688 5.425c-.144.02-.278.086-.383.187L3.527 11.16c-.196.166-.285.428-.23.679.056.251.246.452.494.52s.514-.007.69-.195l5.3-5.092 5.302 5.092c.176.188.442.263.69.195.248-.068.438-.269.493-.52.056-.251-.033-.513-.23-.679L10.26 5.612c-.152-.146-.362-.215-.571-.187z" mask="url(#ntgw44s4pb)" transform="rotate(90 9.782 8.9)"/>
                        </g>
                    </g>
                </g>
            </g>
        </g>
    </g>
</svg>
