<svg xmlns="http://www.w3.org/2000/svg" xmlns:xlink="http://www.w3.org/1999/xlink" width="24" height="24" viewBox="0 0 24 24">
    <defs>
        <path id="r6cvhb9pea" d="M0 0L24 0 24 24 0 24z"/>
    </defs>
    <g fill="none" fill-rule="evenodd">
        <g>
            <g>
                <g transform="translate(-20 -12) translate(20 12)">
                    <mask id="vq2mn3lstb" fill="#fff">
                        <use xlink:href="#r6cvhb9pea"/>
                    </mask>
                    <path fill="#1B1D1F" d="M5.314 19.44h.021c.208 0 .39-.078.515-.22L12 13.114l.045.046 6.06 6.102c.152.152.36.239.572.239l.025-.001c.204-.006.386-.09.513-.235.29-.334.31-.855.044-1.162L13.112 12l.046-.045 6.103-6.06c.159-.16.246-.377.238-.598-.007-.203-.09-.384-.235-.511-.305-.268-.827-.335-1.115-.007L12 10.887l-.045-.046-6.06-6.102c-.151-.153-.359-.239-.57-.239h-.027c-.203.007-.385.091-.512.236-.139.159-.221.37-.226.578-.006.217.073.407.22.535L10.887 12l-.045.044-6.104 6.06c-.157.16-.244.377-.238.598.007.203.09.385.235.512.16.139.37.221.579.227" mask="url(#vq2mn3lstb)"/>
                </g>
            </g>
        </g>
    </g>
</svg>
