<svg xmlns="http://www.w3.org/2000/svg" width="20" height="20" viewBox="0 0 20 20">
    <g fill="none" fill-rule="evenodd">
        <g fill="#1B1D1F">
            <g>
                <g>
                    <g>
                        <path d="M4.167 11.667c.46 0 .833.373.833.833V15h2.5c.46 0 .833.373.833.833 0 .461-.373.834-.833.834H4.167c-.46 0-.834-.373-.834-.834V12.5c0-.46.374-.833.834-.833zm11.666 0c.46 0 .834.373.834.833v3.333c0 .461-.374.834-.834.834H12.5c-.46 0-.833-.373-.833-.834 0-.46.373-.833.833-.833H15v-2.5c0-.46.373-.833.833-.833zM7.5 3.333c.46 0 .833.374.833.834 0 .46-.373.833-.833.833H5v2.5c0 .46-.373.833-.833.833-.46 0-.834-.372-.834-.833V4.167c0-.46.374-.834.834-.834H7.5zm8.333 0c.46 0 .834.374.834.834V7.5c0 .46-.374.833-.834.833-.46 0-.833-.372-.833-.833V5h-2.5c-.46 0-.833-.372-.833-.833 0-.46.373-.834.833-.834h3.333z" transform="translate(-766 -306) translate(140 230) translate(618 70) translate(8 6)"/>
                    </g>
                </g>
            </g>
        </g>
    </g>
</svg>
