<svg xmlns="http://www.w3.org/2000/svg" xmlns:xlink="http://www.w3.org/1999/xlink" width="15" height="15" viewBox="0 0 15 15">
    <defs>
        <path id="7dtw07qsna" d="M0 0L14 0 14 14 0 14z"/>
    </defs>
    <g fill="none" fill-rule="evenodd">
        <g>
            <g>
                <g transform="translate(-4 -2) translate(4.25 2.048)">
                    <mask id="pt3xk8yw1b" fill="#fff">
                        <use xlink:href="#7dtw07qsna"/>
                    </mask>
                    <path fill="#26282B" d="M9.01 2.392c.745 0 1.378.469 1.577 1.166l.562 1.86.01.005c.82.463 1.349 1.314 1.415 2.274v1.398c0 .676-.55 1.227-1.226 1.227h-.099v.97c0 .227-.198.425-.425.425-.226 0-.424-.198-.424-.424v-.97H3.574v.97c0 .226-.198.424-.424.424-.226 0-.425-.198-.425-.424v-.97h-.098c-.677 0-1.227-.552-1.227-1.228V7.7c0-.94.49-1.792 1.311-2.277l.01-.006.56-1.856c.245-.7.88-1.17 1.578-1.17zm.907 3.535h-5.93c-.994 0-1.773.778-1.773 1.773v1.395c0 .224.19.413.413.413h8.65c.225 0 .413-.19.413-.413V7.7c0-.978-.795-1.773-1.773-1.773zM3.953 7.1c.33 0 .598.269.598.6 0 .33-.269.598-.598.598-.33 0-.6-.269-.6-.599 0-.33.27-.599.6-.599zm6 0c.329 0 .598.269.598.6 0 .33-.27.598-.599.598-.33 0-.598-.269-.598-.599 0-.33.269-.599.598-.599zm-.908-3.93h-4.15c-.36 0-.688.253-.796.614l-.395 1.328h6.532L9.84 3.785c-.11-.361-.436-.614-.796-.614z" mask="url(#pt3xk8yw1b)"/>
                </g>
            </g>
        </g>
    </g>
</svg>
