<svg xmlns="http://www.w3.org/2000/svg" xmlns:xlink="http://www.w3.org/1999/xlink" width="15" height="15" viewBox="0 0 15 15">
    <defs>
        <path id="fzbk4kvyya" d="M0 0L14 0 14 14 0 14z"/>
    </defs>
    <g fill="none" fill-rule="evenodd">
        <g>
            <g>
                <g transform="translate(-4 -2) translate(4.25 2.048)">
                    <mask id="xpw51pugqb" fill="#fff">
                        <use xlink:href="#fzbk4kvyya"/>
                    </mask>
                    <path fill="#26282B" d="M6.976 2.842c1.088 0 1.972.884 1.972 1.972 0 1.078-.884 1.955-1.972 1.955-1.087 0-1.971-.877-1.971-1.955 0-1.088.884-1.972 1.971-1.972zm4.114 8.432H2.862l.004-.041c.205-2.088 2.01-3.722 4.11-3.722 2.1 0 3.905 1.634 4.111 3.721l.003.042zM8.603 7.052l-.068-.024.058-.043C9.29 6.474 9.69 5.682 9.69 4.814 9.69 3.317 8.473 2.1 6.976 2.1c-1.496 0-2.713 1.217-2.713 2.714 0 .859.4 1.65 1.099 2.17l.057.044-.067.023C3.437 7.72 2.1 9.61 2.1 11.645c0 .205.166.372.37.372h9.012c.204 0 .37-.167.37-.372 0-2.035-1.336-3.924-3.25-4.593z" mask="url(#xpw51pugqb)"/>
                </g>
            </g>
        </g>
    </g>
</svg>
