<svg xmlns="http://www.w3.org/2000/svg" width="24" height="24" viewBox="0 0 24 24">
    <g fill="none" fill-rule="evenodd">
        <g fill="#1B1D1F">
            <g>
                <g>
                    <g>
                        <g>
                            <path d="M12.045 13.082h-.021c-1.65.021-2.992-1.321-3.013-2.972-.02-1.65 1.322-2.992 2.971-3.013 1.652-.02 2.993 1.322 3.014 2.971v.022c.021 1.65-1.3 2.97-2.95 2.992m6.995-3.075C18.772 6.252 15.698 3.3 12.024 3.3c-3.672 0-6.747 2.952-7.015 6.707-.083 1.734.433 3.446 1.486 4.829.02 0 .02 0 .02.02l4.23 5.139c.6.7 1.651.805 2.352.206.083-.061.146-.123.206-.206l4.232-5.139c0-.02 0-.02.02-.02 1.052-1.383 1.568-3.095 1.486-4.83" transform="translate(-174 -2233) translate(140 2167) translate(0 52) translate(34 14)"/>
                        </g>
                    </g>
                </g>
            </g>
        </g>
    </g>
</svg>
