<svg width="24" height="24" viewBox="0 0 24 24" fill="none" xmlns="http://www.w3.org/2000/svg">
<path fill-rule="evenodd" clip-rule="evenodd" d="M4 6.37738C4 6.03359 4.2787 5.75488 4.6225 5.75488L20.3775 5.75488C20.7213 5.75488 21 6.03359 21 6.37738C21 6.72118 20.7213 6.99988 20.3775 6.99988L4.6225 6.99988C4.2787 6.99988 4 6.72118 4 6.37738ZM12 9.37739C12.1651 9.37739 12.3234 9.44298 12.4402 9.55972L19.7539 16.8734C19.997 17.1165 19.997 17.5107 19.7539 17.7538C19.5108 17.9969 19.1166 17.9969 18.8735 17.7538L12 10.8802L5.12645 17.7538C4.88335 17.9969 4.48921 17.9969 4.24611 17.7538C4.003 17.5107 4.003 17.1165 4.24611 16.8734L11.5598 9.55972C11.6766 9.44298 11.8349 9.37739 12 9.37739Z" fill="#1B1D1F"/>
</svg>
