<svg width="24" height="24" viewBox="0 0 24 24" fill="none" xmlns="http://www.w3.org/2000/svg">
<path fill-rule="evenodd" clip-rule="evenodd" d="M20 17.6226C20 17.9664 19.7213 18.2451 19.3775 18.2451L3.6225 18.2451C3.2787 18.2451 3 17.9664 3 17.6226C3 17.2788 3.27871 17.0001 3.6225 17.0001L19.3775 17.0001C19.7213 17.0001 20 17.2788 20 17.6226ZM12 14.6226C11.8349 14.6226 11.6766 14.557 11.5598 14.4403L4.24613 7.12657C4.00303 6.88347 4.00303 6.48932 4.24613 6.24622C4.48923 6.00312 4.88338 6.00312 5.12648 6.24622L12 13.1198L18.8735 6.24622C19.1166 6.00312 19.5108 6.00312 19.7539 6.24622C19.997 6.48932 19.997 6.88347 19.7539 7.12657L12.4402 14.4403C12.3234 14.557 12.1651 14.6226 12 14.6226Z" fill="#1B1D1F"/>
</svg>
