<svg width="24" height="24" viewBox="0 0 24 24" fill="none" xmlns="http://www.w3.org/2000/svg">
<mask id="mask0" mask-type="alpha" maskUnits="userSpaceOnUse" x="0" y="0" width="24" height="24">
<path fill-rule="evenodd" clip-rule="evenodd" d="M0 0H24V24H0V0Z" fill="white"/>
</mask>
<g mask="url(#mask0)">
<path fill-rule="evenodd" clip-rule="evenodd" d="M11.5216 2.55806C11.7749 2.31398 12.1857 2.31398 12.4391 2.55806L16.568 6.53553C16.8213 6.77961 16.8213 7.17534 16.568 7.41942C16.3146 7.6635 15.9038 7.6635 15.6504 7.41942L12.6291 4.50888V14C12.6291 14.3452 12.3387 14.625 11.9803 14.625C11.622 14.625 11.3316 14.3452 11.3316 14V4.50888L8.31024 7.41942C8.05687 7.6635 7.64608 7.6635 7.39271 7.41942C7.13935 7.17534 7.13935 6.77961 7.39271 6.53553L11.5216 2.55806ZM5.33675 11.025C5.12176 11.025 4.94748 11.1929 4.94748 11.4V20.4C4.94748 20.6071 5.12176 20.775 5.33675 20.775H18.6239C18.8389 20.775 19.0132 20.6071 19.0132 20.4V11.4C19.0132 11.1929 18.8389 11.025 18.6239 11.025H15.8212C15.4629 11.025 15.1724 10.7452 15.1724 10.4C15.1724 10.0548 15.4629 9.77499 15.8212 9.77499H18.6239C19.5556 9.77499 20.3108 10.5025 20.3108 11.4V20.4C20.3108 21.2975 19.5556 22.025 18.6239 22.025H5.33675C4.40513 22.025 3.6499 21.2975 3.6499 20.4V11.4C3.6499 10.5025 4.40513 9.77499 5.33675 9.77499H8.13952C8.49784 9.77499 8.78831 10.0548 8.78831 10.4C8.78831 10.7452 8.49784 11.025 8.13952 11.025H5.33675Z" fill="#454B50"/>
</g>
</svg>
