<svg width="24" height="24" viewBox="0 0 24 24" fill="none" xmlns="http://www.w3.org/2000/svg">
<mask id="mask0" mask-type="alpha" maskUnits="userSpaceOnUse" x="0" y="0" width="24" height="24">
<path fill-rule="evenodd" clip-rule="evenodd" d="M0 0H24V24H0V0Z" fill="white"/>
</mask>
<g mask="url(#mask0)">
<path fill-rule="evenodd" clip-rule="evenodd" d="M11.9979 2.55806C12.2513 2.31398 12.6621 2.31398 12.9154 2.55806L17.0443 6.53553C17.2977 6.77961 17.2977 7.17534 17.0443 7.41942C16.7909 7.6635 16.3801 7.6635 16.1268 7.41942L13.1055 4.50888V14C13.1055 14.3452 12.815 14.625 12.4567 14.625C12.0983 14.625 11.8079 14.3452 11.8079 14V4.50888L8.78656 7.41942C8.53319 7.6635 8.1224 7.6635 7.86903 7.41942C7.61567 7.17534 7.61567 6.77961 7.86903 6.53553L11.9979 2.55806ZM5.81307 11.025C5.59808 11.025 5.4238 11.1929 5.4238 11.4V20.4C5.4238 20.6071 5.59808 20.775 5.81307 20.775H19.1003C19.3153 20.775 19.4895 20.6071 19.4895 20.4V11.4C19.4895 11.1929 19.3153 11.025 19.1003 11.025H16.2975C15.9392 11.025 15.6487 10.7452 15.6487 10.4C15.6487 10.0548 15.9392 9.77499 16.2975 9.77499H19.1003C20.0319 9.77499 20.7871 10.5025 20.7871 11.4V20.4C20.7871 21.2975 20.0319 22.025 19.1003 22.025H5.81307C4.88145 22.025 4.12622 21.2975 4.12622 20.4V11.4C4.12622 10.5025 4.88145 9.77499 5.81307 9.77499H8.61584C8.97416 9.77499 9.26463 10.0548 9.26463 10.4C9.26463 10.7452 8.97416 11.025 8.61584 11.025H5.81307Z" fill="#1B1D1F"/>
</g>
</svg>
